<?xml version="1.0"?>
<svg xmlns="http://www.w3.org/2000/svg" viewBox="0 0 512 512" width="512" height="512"><g id="outline"><path d="M486.625,388.485a8,8,0,0,0,.8-7.457l-1.145-2.86A66.76,66.76,0,0,0,424,336a79.5,79.5,0,0,0-32.749,7.039,154.1,154.1,0,0,0-10.695-83.39l-1.9-4.429,4.028.671A8.056,8.056,0,0,0,384,256h24a8,8,0,0,0,8-8V200a8,8,0,0,0-8-8H384a8.056,8.056,0,0,0-1.315.109L376,193.223v-7.007l11.218-18.7A24,24,0,0,0,392,168h8a24,24,0,0,0,0-48h-8a23.988,23.988,0,0,0-18.5,39.277L361.14,179.884A8,8,0,0,0,360,184v11.89l-10.365,1.727A24.03,24.03,0,0,0,328,184H275.314l-13.657-13.657L242.343,151.03a23.862,23.862,0,0,0-10.343-6.1V129.869A23.941,23.941,0,0,0,240,112V88h16V72H240a32,32,0,0,0-64,0v32a31.86,31.86,0,0,0,8,21.132v25A23.941,23.941,0,0,0,176,168v88a31.793,31.793,0,0,0,4.305,16H160V24a8,8,0,0,0-10.809-7.491l-64,24a8,8,0,0,0,0,14.982L144,77.544V112H24a8,8,0,0,0-8,8V280a8,8,0,0,0,8,8H85.873q-.35.99-.617,2.021A88.235,88.235,0,0,0,16,376v56a8,8,0,0,0,8,8h8.518a63.982,63.982,0,0,0,126.963.006l152.538.006h0A58.32,58.32,0,0,0,352.247,424h8.383c2.648,0,5.29-.123,7.92-.341A64,64,0,1,0,496,432a63.568,63.568,0,0,0-14.15-40.222A8,8,0,0,0,486.625,388.485ZM392,136h8a8,8,0,0,1,0,16h-8a8,8,0,0,1,0-16Zm75.329,240H463.37a96.156,96.156,0,0,0-47.63,12.649l-15.419,8.81A80.125,80.125,0,0,1,360.63,408H360.5A64.1,64.1,0,0,1,424,352,50.8,50.8,0,0,1,467.329,376ZM432,416a16,16,0,1,1-16,16A16.019,16.019,0,0,1,432,416ZM232,340.842A45.808,45.808,0,0,1,237.015,320H240v72h0a8,8,0,0,1-8-8ZM288,392H256V381.558A30.688,30.688,0,0,0,283.03,376H288a8,8,0,0,1,0,16Zm-16-27.755a14.672,14.672,0,0,1-16,0V352h16ZM288,360V288a48.055,48.055,0,0,0-48-48V219.313l10.343,10.344A8,8,0,0,0,256,232h49.376a24.071,24.071,0,0,0,18.6,15.656l8.589,31.492a147.372,147.372,0,0,1-1.024,81.2l-.295.986A42.918,42.918,0,0,1,311.9,386.145c.063-.707.1-1.422.1-2.145A24.027,24.027,0,0,0,288,360Zm48-136a8,8,0,1,1-8-8A8.009,8.009,0,0,1,336,224Zm13.729-10.178L376,209.444v29.112l-26.271-4.378a23.943,23.943,0,0,0,0-20.356ZM400,240h-8V208h8ZM272,200h56a24.038,24.038,0,0,0-22.624,16H259.314l-16-16L256,187.314l10.343,10.343A8,8,0,0,0,272,200Zm-27.313-24L232,188.687l-10.343-10.344-11.314,11.314L224,203.313V224H192V168a8.009,8.009,0,0,1,8-8h25.373a7.949,7.949,0,0,1,5.657,2.343ZM224,112a8.009,8.009,0,0,1-8,8h-8a16.019,16.019,0,0,1-16-16V88h32ZM208,56a16.019,16.019,0,0,1,16,16H192A16.019,16.019,0,0,1,208,56Zm-8,78.987A31.94,31.94,0,0,0,208,136h8v8H200ZM192,256V240h32v8a8,8,0,0,0,8,8h8a32.036,32.036,0,0,1,32,32v48H256V296a24.028,24.028,0,0,0-24-24H208A16.019,16.019,0,0,1,192,256ZM110.784,48,144,35.544V60.456ZM144,128v16H32V128ZM32,160H144V272H32ZM232,288a8.009,8.009,0,0,1,8,8v8H98.246l2.485-9.94a7.99,7.99,0,0,1,7.761-6.06ZM168,424v.006L48.367,424A88.117,88.117,0,0,1,136,344a56.064,56.064,0,0,1,56,56A24.028,24.028,0,0,1,168,424Zm-58.167,16a15.962,15.962,0,0,1-27.666,0ZM96,480a48.069,48.069,0,0,1-47.32-40H65.013a32,32,0,0,0,61.973,0H143.32A48.07,48.07,0,0,1,96,480Zm216.02-55.988-112.048,0A39.8,39.8,0,0,0,208,400a72.081,72.081,0,0,0-72-72A104.139,104.139,0,0,0,32.305,424H32V376a72.251,72.251,0,0,1,48.8-68.174l-.558,2.234A8,8,0,0,0,88,320H219.622A61.8,61.8,0,0,0,216,340.842V384a24,24,0,0,0,24,24l50.257,0a58.517,58.517,0,0,0,56.315-42.067l.3-.987A163.354,163.354,0,0,0,348,274.938l-7.094-26.009,19,3.166,5.941,13.859a138.018,138.018,0,0,1,6.688,88.86,79.892,79.892,0,0,0-28.226,54.349A42.4,42.4,0,0,1,312.02,424.012ZM432,480a48.019,48.019,0,0,1-46.671-59.238,96.057,96.057,0,0,0,21.692-8.73A31.982,31.982,0,1,0,432,400a32.213,32.213,0,0,0-4.025.262,80.19,80.19,0,0,1,30.752-8.119A47.991,47.991,0,0,1,432,480Z"/><path d="M128,224a40.148,40.148,0,0,0-15.323-31.466l3.944-7.888a8,8,0,0,0-3.572-10.729,55.984,55.984,0,0,0-50.1,0,8,8,0,0,0-3.572,10.73l3.944,7.888A40,40,0,1,0,128,224ZM98.376,185.358,88,206.111,77.624,185.358A40.419,40.419,0,0,1,98.376,185.358ZM88,248a23.984,23.984,0,0,1-17.267-40.646l10.112,20.224a8,8,0,0,0,14.31,0l10.112-20.224A23.984,23.984,0,0,1,88,248Z"/></g></svg>
